<svg style="fill: #fff;" id="nocam" xmlns="http://www.w3.org/2000/svg" viewBox="0 0 24.83 21.93"><ellipse class="cls-1" cx="7.02" cy="4.11" rx="2.64" ry="2.74"/><ellipse class="cls-1" cx="14.27" cy="3.42" rx="3.3" ry="3.42"/><path class="cls-2" d="M-253.46-558.39v5c0,0.5,4,4.33,4.57,4.33a0.76,0.76,0,0,0,.7-0.69V-562a0.68,0.68,0,0,0-.7-0.68C-249.59-562.72-253.46-558.89-253.46-558.39Z" transform="translate(273.01 568.93)"/><path class="cls-2" d="M-269.94-560.93v9.63l13.06-10.4h-12a1,1,0,0,0-1.05.76" transform="translate(273.01 568.93)"/><path class="cls-2" d="M-267.88-550.06h12.71a1,1,0,0,0,1.06-.78v-10.08a0.76,0.76,0,0,0,0-.08Z" transform="translate(273.01 568.93)"/><path class="cls-1" d="M-250.07-565.33l-0.31-.39a0.15,0.15,0,0,0-.1-0.06,0.14,0.14,0,0,0-.11,0l-22.36,17.8a0.15,0.15,0,0,0,0,.21l0.31,0.54a0.61,0.61,0,0,0,.1.2h0a0.81,0.81,0,0,0,.09-0.18L-250.09-565A0.25,0.25,0,0,0-250.07-565.33Z" transform="translate(273.01 568.93)"/></svg>
