<svg style="fill: #fff;" id="mute" xmlns="http://www.w3.org/2000/svg" viewBox="0 0 17.87 22.21"><path class="cls-1" d="M-227.72-551.79a4.2,4.2,0,0,0,4.18-4.21v-5.59l-7.74,7.79A4.17,4.17,0,0,0-227.72-551.79Z" transform="translate(236.84 569.41)"/><path class="cls-1" d="M-219.09-567.76a0.38,0.38,0,0,0-.54,0l-13.19,13.29A5.35,5.35,0,0,1-233-556v-2.3a0.38,0.38,0,0,0-.38-0.38,0.38,0.38,0,0,0-.38.38v2.3a6.11,6.11,0,0,0,.39,2.13l-3.32,3.34a0.39,0.39,0,0,0,0,.54,0.38,0.38,0,0,0,.27.11,0.38,0.38,0,0,0,.27-0.11l3.11-3.13a6.09,6.09,0,0,0,5,3.23V-548H-230a0.38,0.38,0,0,0-.38.38,0.38,0.38,0,0,0,.38.38h4.56a0.38,0.38,0,0,0,.38-0.38,0.38,0.38,0,0,0-.38-0.38h-1.9v-1.94a6.11,6.11,0,0,0,5.7-6.11v-2.3a0.38,0.38,0,0,0-.38-0.38,0.38,0.38,0,0,0-.38.38v2.3a5.35,5.35,0,0,1-5.32,5.36,5.32,5.32,0,0,1-4.8-3.05l13.43-13.53A0.38,0.38,0,0,0-219.09-567.76Z" transform="translate(236.84 569.41)"/><path class="cls-1" d="M-223.54-565.19a4.2,4.2,0,0,0-4.18-4.21,4.2,4.2,0,0,0-4.18,4.21v8.65l8.37-8.42v-0.22Z" transform="translate(236.84 569.41)"/></svg>
