<svg xmlns="http://www.w3.org/2000/svg" style="fill: #fff" id="twitch-small" viewBox="0 0 29.74 31.08"><title>twitch-small</title><path d="M439.82,676.12h2.67c0.06-.24.06-7.91,0-8.1h-2.66C439.83,670.73,439.83,673.42,439.82,676.12Z" transform="translate(-427.65 -659.9)"/><path d="M449.91,668h-2.66c0,2.71,0,5.4,0,8.1h2.66C450,675.88,450,668.22,449.91,668Z" transform="translate(-427.65 -659.9)"/><path d="M457.38,660.1a1.71,1.71,0,0,0,0-.17h-0.23l-27.16,0c-0.32,0-.26,0-0.34.24l-1.86,4.94a1.37,1.37,0,0,0-.09.49q0,8.14,0,16.27,0,2.38,0,4.75v0.3h7.41c0,1.35,0,2.69,0,4.06h3.79a0.59,0.59,0,0,0,.47-0.19L443,687.1a0.57,0.57,0,0,1,.44-0.19h5.48a0.73,0.73,0,0,0,.57-0.23q3.82-3.83,7.66-7.64a0.68,0.68,0,0,0,.22-0.53q0-9.12,0-18.24C457.38,660.23,457.39,660.16,457.38,660.1Zm-2.71,2.84q0,7.14,0,14.28a0.54,0.54,0,0,1-.17.43L450.09,682a0.52,0.52,0,0,1-.4.17h-6.91a0.59,0.59,0,0,0-.47.19l-3.6,3.6a1.75,1.75,0,0,0-.16.22l0,0h0l0,0a0.19,0.19,0,0,1,0,0q0-1.92,0-3.83l0-.06c-0.48,0-1,0-1.48,0h-4.53c-0.05-.2-0.05-19.1,0-19.53,0.17,0,21.89,0,22.24,0v0.27Z" transform="translate(-427.65 -659.9)"/></svg>
