<svg style="fill: #fff" id="yt-small" xmlns="http://www.w3.org/2000/svg" viewBox="0 0 33.65 25.26"><title>yt-small</title><path d="M461.25,582.35a11.08,11.08,0,0,0-.83-3.69,3.85,3.85,0,0,0-3-2.37,33.15,33.15,0,0,0-4.08-.33c-3.46-.09-6.92-0.2-10.38-0.16s-6.94.21-10.41,0.4a4.11,4.11,0,0,0-3.85,3,19.16,19.16,0,0,0-.75,5.53,73.81,73.81,0,0,0,.16,9.7,11.87,11.87,0,0,0,.74,3.45,3.75,3.75,0,0,0,2.71,2.39,16,16,0,0,0,3,.41c3.14,0.13,6.27.2,10.69,0.34,3-.12,7.25-0.27,11.51-0.49a4.15,4.15,0,0,0,4-3.06,19.6,19.6,0,0,0,.74-5.57A74.4,74.4,0,0,0,461.25,582.35Zm-20.76,12.34V582.08l10.51,6.3Z" transform="translate(-427.84 -575.8)"></path></svg>
