<svg style="fill: #000" id="rtmp-icon" xmlns="http://www.w3.org/2000/svg" viewBox="0 0 53.6 53.6"><path d="M654.2,571.3h-2V575h2.08a1.85,1.85,0,0,0,2.08-1.81v0C656.34,571.93,655.52,571.3,654.2,571.3Z" transform="translate(-610.3 -548.29)"></path><path d="M621.19,571.3h-2.61v3.43h2.66a1.73,1.73,0,0,0,2-1.69v0C623.26,571.88,622.47,571.3,621.19,571.3Z" transform="translate(-610.3 -548.29)"></path><path d="M658.43,548.34l-42.6,0a5.48,5.48,0,0,0-5.48,5.47l0,42.6a5.48,5.48,0,0,0,5.47,5.48l42.6,0a5.47,5.47,0,0,0,5.49-5.47l0-42.6A5.48,5.48,0,0,0,658.43,548.34Zm-32.51,24.57a3.64,3.64,0,0,1-2.39,3.63l1.83,2.22a1.53,1.53,0,0,1,.43,1,1.22,1.22,0,0,1-1.25,1.21,1.57,1.57,0,0,1-1.3-.68l-2.56-3.24h-2.1v2.61a1.31,1.31,0,0,1-2.63,0v-9.42a1.3,1.3,0,0,1,1.31-1.31h4.15a4.76,4.76,0,0,1,3.48,1.21,3.75,3.75,0,0,1,1,2.73v0Zm8.77-1.55h-2.52v8.31a1.31,1.31,0,1,1-2.63,0v-8.31H627a1.21,1.21,0,1,1,0-2.42h7.68A1.21,1.21,0,0,1,634.69,571.35Zm13.53,8.31a1.31,1.31,0,1,1-2.61,0v-6l-2.3,3.55a1.23,1.23,0,0,1-2.18,0l-2.27-3.5v5.94a1.28,1.28,0,0,1-1.3,1.28,1.27,1.27,0,0,1-1.28-1.28v-9.52a1.3,1.3,0,0,1,1.31-1.31h0.29a1.35,1.35,0,0,1,1.19.68l3.17,5.17,3.19-5.19a1.28,1.28,0,0,1,1.18-.67h0.29a1.3,1.3,0,0,1,1.31,1.31v9.49ZM659,573.09c0,2.76-2.15,4.2-4.83,4.2h-2v2.37a1.31,1.31,0,0,1-2.63,0v-9.42a1.3,1.3,0,0,1,1.31-1.31h3.57c2.85,0,4.57,1.69,4.57,4.13v0Z" transform="translate(-610.3 -548.29)"></path></svg>
