<svg style="fill: #6441a4" id="twitch-icon" xmlns="http://www.w3.org/2000/svg" viewBox="0 0 53.6 53.6"><path d="M565,564c0,0.46,0,20.63,0,20.84h4.83c0.53,0,1.06,0,1.57,0l0,0.06q0,2,0,4.09a0.2,0.2,0,0,0,0,.05l0,0h0l0,0a1.86,1.86,0,0,1,.17-0.23l3.84-3.84a0.63,0.63,0,0,1,.5-0.2l7.38,0a0.55,0.55,0,0,0,.43-0.18l4.69-4.68a0.58,0.58,0,0,0,.18-0.45q0-7.62,0-15.25V564C588.36,564,565.17,563.95,565,564Zm15.82,5.74h2.83c0.06,0.2.06,8.37,0,8.64H580.8C580.8,575.5,580.8,572.63,580.81,569.74Zm-5.09,8.64h-2.85c0-2.88,0-5.75,0-8.64h2.84C575.78,569.93,575.78,578.11,575.72,578.37Z" transform="translate(-548.95 -549.63)"></path><path d="M597.08,549.67l-42.6,0A5.48,5.48,0,0,0,549,555.1l0,42.6a5.48,5.48,0,0,0,5.47,5.48l42.6,0a5.47,5.47,0,0,0,5.49-5.47l0-42.6A5.48,5.48,0,0,0,597.08,549.67Zm-5.47,31.28a0.72,0.72,0,0,1-.24.56q-4.09,4.07-8.17,8.15a0.77,0.77,0,0,1-.61.25l-5.85,0a0.6,0.6,0,0,0-.47.2L572.33,594a0.63,0.63,0,0,1-.5.2h-4c0-1.47,0-2.89,0-4.33h-7.91v-0.33q0-2.54,0-5.07,0-8.69,0-17.37a1.46,1.46,0,0,1,.09-0.53l2-5.27c0.09-.25,0-0.25.37-0.25l29,0h0.25a1.82,1.82,0,0,1,0,.18c0,0.07,0,.14,0,0.21Q591.61,571.21,591.6,580.95Z" transform="translate(-548.95 -549.63)"></path></svg>
