<svg style="fill: #d50d1a" id="youtube-icon" xmlns="http://www.w3.org/2000/svg" viewBox="0 0 53.56 53.55"><path d="M445.74,582.69l10.51-6.31-10.51-6.3v12.61Z" transform="translate(-423.13 -549.65)"></path><path d="M471.22,549.65h-42.6a5.48,5.48,0,0,0-5.48,5.48v42.6a5.48,5.48,0,0,0,5.48,5.48h42.6a5.47,5.47,0,0,0,5.48-5.48v-42.6A5.47,5.47,0,0,0,471.22,549.65Zm-4.56,30.28a19.6,19.6,0,0,1-.74,5.57,4.15,4.15,0,0,1-4,3.06c-4.26.22-8.53,0.37-11.51,0.49-4.42-.13-7.56-0.2-10.69-0.34a16,16,0,0,1-3-.41,3.75,3.75,0,0,1-2.71-2.39,11.87,11.87,0,0,1-.74-3.45,73.81,73.81,0,0,1-.16-9.7,19.16,19.16,0,0,1,.75-5.53,4.11,4.11,0,0,1,3.85-3c3.47-.19,6.94-0.36,10.41-0.4s6.92,0.07,10.38.16a33.15,33.15,0,0,1,4.08.33,3.85,3.85,0,0,1,3,2.37,11.08,11.08,0,0,1,.83,3.69A74.4,74.4,0,0,1,466.65,579.93Z" transform="translate(-423.13 -549.65)"></path></svg>
